<?xml version="1.0" encoding="utf-8"?>
<!-- Generator: Adobe Illustrator 18.1.1, SVG Export Plug-In . SVG Version: 6.00 Build 0)  -->
<svg version="1.1" id="Layer_1" xmlns="http://www.w3.org/2000/svg" xmlns:xlink="http://www.w3.org/1999/xlink" x="0px" y="0px"
	 viewBox="718 -372 1536 1536" enable-background="new 718 -372 1536 1536" xml:space="preserve">
<path d="M1742,396c0-70.7-25-131-75-181s-110.3-75-181-75s-131,25-181,75s-75,110.3-75,181s25,131,75,181
	s110.3,75,181,75s131-25,181-75S1742,466.7,1742,396z M1880,396c0,109.3-38.3,202.3-115,279s-169.7,115-279,115s-202.3-38.3-279-115
	s-115-169.7-115-279s38.3-202.3,115-279S1376.7,2,1486,2s202.3,38.3,279,115S1880,286.7,1880,396z M1988-14c0,25.3-9,47-27,65
	s-39.7,27-65,27s-47-9-65-27s-27-39.7-27-65s9-47,27-65s39.7-27,65-27s47,9,65,27S1988-39.3,1988-14z M1486-234
	c-4.7,0-30.2-0.2-76.5-0.5s-81.5-0.3-105.5,0s-56.2,1.3-96.5,3s-74.7,5-103,10c-28.3,5-52.2,11.2-71.5,18.5
	c-33.3,13.3-62.7,32.7-88,58s-44.7,54.7-58,88c-7.3,19.3-13.5,43.2-18.5,71.5c-5,28.3-8.3,62.7-10,103s-2.7,72.5-3,96.5
	s-0.3,59.2,0,105.5s0.5,71.8,0.5,76.5s-0.2,30.2-0.5,76.5s-0.3,81.5,0,105.5s1.3,56.2,3,96.5s5,74.7,10,103s11.2,52.2,18.5,71.5
	c13.3,33.3,32.7,62.7,58,88s54.7,44.7,88,58c19.3,7.3,43.2,13.5,71.5,18.5c28.3,5,62.7,8.3,103,10s72.5,2.7,96.5,3s59.2,0.3,105.5,0
	s71.8-0.5,76.5-0.5s30.2,0.2,76.5,0.5s81.5,0.3,105.5,0s56.2-1.3,96.5-3s74.7-5,103-10s52.2-11.2,71.5-18.5
	c33.3-13.3,62.7-32.7,88-58c25.3-25.3,44.7-54.7,58-88c7.3-19.3,13.5-43.2,18.5-71.5s8.3-62.7,10-103s2.7-72.5,3-96.5
	s0.3-59.2,0-105.5s-0.5-71.8-0.5-76.5s0.2-30.2,0.5-76.5s0.3-81.5,0-105.5s-1.3-56.2-3-96.5s-5-74.7-10-103
	c-5-28.3-11.2-52.2-18.5-71.5c-13.3-33.3-32.7-62.7-58-88c-25.3-25.3-54.7-44.7-88-58c-19.3-7.3-43.2-13.5-71.5-18.5
	s-62.7-8.3-103-10s-72.5-2.7-96.5-3s-59.2-0.3-105.5,0S1490.7-234,1486-234z M2254,396c0,152.7-1.7,258.3-5,317
	c-6.7,138.7-48,246-124,322s-183.3,117.3-322,124c-58.7,3.3-164.3,5-317,5s-258.3-1.7-317-5c-138.7-6.7-246-48-322-124
	S729.7,851.7,723,713c-3.3-58.7-5-164.3-5-317s1.7-258.3,5-317c6.7-138.7,48-246,124-322s183.3-117.3,322-124
	c58.7-3.3,164.3-5,317-5s258.3,1.7,317,5c138.7,6.7,246,48,322,124s117.3,183.3,124,322C2252.3,137.7,2254,243.3,2254,396z"/>
</svg>
