<svg xmlns="http://www.w3.org/2000/svg" xmlns:xlink="http://www.w3.org/1999/xlink" width="95" height="98"
	 viewBox="-403.6 217.2 588.3 606.4" enable-background="new -403.6 217.2 588.3 606.4" xml:space="preserve">
<g>
	<path d="M66,247h61.2c1.9,0,3.8-1.4,3.8-3.8c0-1.9-1.4-3.8-3.8-3.8H66c-1.9,0-3.8,1.4-3.8,3.8C62.2,245.1,63.6,247,66,247z"/>
	<path d="M25.8,247h20.1c1.9,0,3.8-1.4,3.8-3.8c0-1.9-1.4-3.8-3.8-3.8H25.8c-1.9,0-3.8,1.4-3.8,3.8C22,245.1,23.9,247,25.8,247z"/>
	<path d="M25.8,268h42.6c1.9,0,3.8-1.4,3.8-3.8s-1.4-3.8-3.8-3.8H25.8c-1.9,0-3.8,1.4-3.8,3.8S23.9,268,25.8,268z"/>
	<path d="M87,260.9c-1.9,0-3.8,1.4-3.8,3.8s1.4,3.8,3.8,3.8h13.9c1.9,0,3.8-1.4,3.8-3.8s-1.4-3.8-3.8-3.8H87z"/>
	<path d="M173.1,308.2c1.9,0,3.8-1.4,3.8-3.8v-52.1c0-1.9-1.4-3.8-3.8-3.8c-1.9,0-3.8,1.4-3.8,3.8v52.1
		C169.3,306.3,170.7,308.2,173.1,308.2z"/>
	<path d="M173.1,342.2c1.9,0,3.8-1.4,3.8-3.8v-16.7c0-1.9-1.4-3.8-3.8-3.8c-1.9,0-3.8,1.4-3.8,3.8v16.7
		C169.3,340.2,170.7,342.2,173.1,342.2z"/>
	<path d="M-55.4,283.8c0.5,0.5,1.4,1,2.4,1c1,0,1.9-0.5,2.4-1c1.4-1.4,1.4-3.8,0-5.3l-6.2-6.7c-1.4-1.4-3.8-1.4-5.3,0
		c-1.4,1.4-1.4,3.8,0,5.3L-55.4,283.8z"/>
	<path d="M-33,305.8c0.5,0.5,1.4,1,2.4,1s1.9-0.5,2.4-1c1.4-1.4,1.4-3.8,0-5.3l-6.7-6.7c-1.4-1.4-3.8-1.4-5.3,0
		c-1.4,1.4-1.4,3.8,0,5.3L-33,305.8z"/>
	<path d="M-59.3,307.3c1,0,1.9-0.5,2.4-1l6.7-6.7c1.4-1.4,1.4-3.8,0-5.3c-1.4-1.4-3.8-1.4-5.3,0l-6.7,6.7c-1.4,1.4-1.4,3.8,0,5.3
		C-61.2,306.8-60.2,307.3-59.3,307.3z"/>
	<path d="M-37.3,284.8c1,0,1.9-0.5,2.4-1l6.7-6.7c1.4-1.4,1.4-3.8,0-5.3s-3.8-1.4-5.3,0l-6.7,6.7c-1.4,1.4-1.4,3.8,0,5.3
		C-39.2,284.8-38.2,284.8-37.3,284.8z"/>
	<path d="M-387.3,449.3c0.5,0.5,1.4,1,2.4,1c1,0,1.9-0.5,2.4-1c1.4-1.4,1.4-3.8,0-5.3l-6.7-6.7c-1.4-1.4-3.8-1.4-5.3,0
		c-1.4,1.4-1.4,3.8,0,5.3L-387.3,449.3z"/>
	<path d="M-367.2,459.3c-1.4-1.4-3.8-1.4-5.3,0c-1.4,1.4-1.4,3.8,0,5.3l6.7,6.7c0.5,0.5,1.4,1,2.4,1c1,0,1.9-0.5,2.4-1
		c1.4-1.4,1.4-3.8,0-5.3L-367.2,459.3z"/>
	<path d="M-382,459.3c-1.4-1.4-3.8-1.4-5.3,0l-6.7,6.7c-1.4,1.4-1.4,3.8,0,5.3c0.5,0.5,1.4,1,2.4,1c1,0,1.9-0.5,2.4-1l6.7-6.7
		C-381.1,463.1-381.1,460.7-382,459.3z"/>
	<path d="M-365.3,437.3l-6.7,6.7c-1.4,1.4-1.4,3.8,0,5.3c0.5,0.5,1.4,1,2.4,1c1,0,1.9-0.5,2.4-1l6.7-6.7c1.4-1.4,1.4-3.8,0-5.3
		C-361.4,435.9-363.8,435.9-365.3,437.3z"/>
	<path d="M-397.3,764.3c-1.4-1.4-3.8-1.4-5.3,0c-1.4,1.4-1.4,3.8,0,5.3l6.7,6.7c0.5,0.5,1.4,1,2.4,1c1,0,1.9-0.5,2.4-1
		c1.4-1.4,1.4-3.8,0-5.3L-397.3,764.3z"/>
	<path d="M-374.8,786.3c-1.4-1.4-3.8-1.4-5.3,0c-1.4,1.4-1.4,3.8,0,5.3l6.7,6.7c0.5,0.5,1.4,1,2.4,1s1.9-0.5,2.4-1
		c1.4-1.4,1.4-3.8,0-5.3L-374.8,786.3z"/>
	<path d="M-395.4,786.3l-6.7,6.7c-1.4,1.4-1.4,3.8,0,5.3c0.5,0.5,1.4,1,2.4,1s1.9-0.5,2.4-1l6.7-6.7c1.4-1.4,1.4-3.8,0-5.3
		C-391.6,785.4-394,785.4-395.4,786.3z"/>
	<path d="M-373.4,764.3l-6.7,6.7c-1.4,1.4-1.4,3.8,0,5.3c0.5,0.5,1.4,1,2.4,1s1.9-0.5,2.4-1l6.7-6.7c1.4-1.4,1.4-3.8,0-5.3
		C-369.6,762.9-372,762.9-373.4,764.3z"/>
	<path d="M155.4,761.5c-1.4-1.4-3.8-1.4-5.3,0c-1.4,1.4-1.4,3.8,0,5.3l6.7,6.7c0.5,0.5,1.4,1,2.4,1s1.9-0.5,2.4-1
		c1.4-1.4,1.4-3.8,0-5.3L155.4,761.5z"/>
	<path d="M177.4,783.5c-1.4-1.4-3.8-1.4-5.3,0c-1.4,1.4-1.4,3.8,0,5.3l6.7,6.7c0.5,0.5,1.4,1,2.4,1c1,0,1.9-0.5,2.4-1
		c1.4-1.4,1.4-3.8,0-5.3L177.4,783.5z"/>
	<path d="M156.8,783.5l-6.7,6.7c-1.4,1.4-1.4,3.8,0,5.3c0.5,0.5,1.4,1,2.4,1c1,0,1.9-0.5,2.4-1l6.7-6.7c1.4-1.4,1.4-3.8,0-5.3
		C160.7,782,158.3,782,156.8,783.5z"/>
	<path d="M172.1,773.4c0.5,0.5,1.4,1,2.4,1c1,0,1.9-0.5,2.4-1l6.7-6.7c1.4-1.4,1.4-3.8,0-5.3c-1.4-1.4-3.8-1.4-5.3,0l-6.7,6.7
		C170.7,769.6,170.7,772,172.1,773.4z"/>
	<path d="M-305,288.1c10,0,17.7-8.1,17.7-17.7c0-10-7.7-17.7-17.7-17.7c-10,0-17.7,8.1-17.7,17.7S-315.1,288.1-305,288.1z
		 M-305,259.9c5.7,0,10.5,4.8,10.5,10.5S-299.3,281-305,281c-5.7,0-10.5-4.8-10.5-10.5S-310.8,259.9-305,259.9z"/>
	<path d="M162.6,527.7c7.7,0,13.9-6.2,13.9-13.9s-6.2-13.9-13.9-13.9c-7.7,0-13.9,6.2-13.9,13.9
		C148.2,521.5,154.4,527.7,162.6,527.7z M162.6,506.6c3.8,0,6.7,2.9,6.7,6.7s-2.9,6.7-6.7,6.7c-3.8,0-6.7-2.9-6.7-6.7
		C155.4,510,158.7,506.6,162.6,506.6z"/>
	<path d="M-293.1,781.1c0,1.9,1.4,3.8,3.8,3.8h371c1.9,0,3.8-1.4,3.8-3.8c0-1.9-1.4-3.8-3.8-3.8h-371
		C-291.6,777.3-293.1,779.2-293.1,781.1z"/>
	<path d="M141.1,585.5c-0.5-1-1.9-1.9-3.3-1.9h-468.6c-1.4,0-2.4,0.5-2.9,1.4c-22,33.5-22,77,0,110.4c0.5,1,1.9,1.4,2.9,1.4h208.5
		v13.4h-208c-1.4,0-2.4,0.5-2.9,1.4c-22,33.5-22,77,0,110.4c0.5,1,1.9,1.4,2.9,1.4h468.6c1.4,0,2.4-1,3.3-1.9c0.5-1,0.5-2.4,0-3.8
		c-20.6-31.1-20.6-71.2,0-102.3c1-1,1-2.4,0-3.8c-0.5-1-1.9-1.9-3.3-1.9h-164v-12.4h164c1.4,0,2.4-1,3.3-1.9c0.5-1,0.5-2.4,0-3.8
		c-20.6-31.1-20.6-71.2,0-102.3C142,587.9,142,586.5,141.1,585.5z M-25.8,769.6v-12.4H81.3c1.9,0,3.8-1.4,3.8-3.8s-1.4-3.8-3.8-3.8
		H-25.8V717H132c-17.7,30.6-17.7,68.4,0,99.4h-460.4c-19.1-30.1-19.1-68.8,0-99.4h206.6v32.5H-229c-1.9,0-3.8,1.4-3.8,3.8
		s1.4,3.8,3.8,3.8h107.1v12.4c0,1,0.5,1.9,1,2.4l0,0l0.5,0.5c0.5,0.5,1.4,0.5,1.9,0.5c0.5,0,1.4-0.5,1.9-0.5l24.4-16.7l13.4-9.1
		c0.5-0.5,1.4-0.5,1.9-1h0.5c0.5,0,0.5,0,1,0c1.4,0,2.9,0.5,3.8,0.5c0.5,0,1,0.5,1,0.5l0,0l37.8,25.8c0.5,0.5,1,0.5,1.9,0.5l0,0l0,0
		c0.5,0,1,0,1.4-0.5l0,0C-26.8,772.5-25.8,771-25.8,769.6z M-114.7,762.9V650.6c0.5-1,1.4-4.8,4.3-5.7c0.5,0,1-0.5,1.4-0.5h69.8
		c1,0.5,4.8,1.4,5.7,4.3c0,0.5,0.5,1,0.5,1.4l0,0v112.8l-16.7-11.5L-65,740.9c0,0-0.5,0-1-0.5c-2.9-1.9-6.2-2.4-9.6-1.9
		c-0.5,0-1,0-1,0.5c-0.5,0-1,0-1.4,0.5c-0.5,0-1,0.5-1.4,0.5c-1,0.5-1.9,1-2.4,1.4l0,0l-10,7.2L-114.7,762.9z M131.5,690.2H-26.3
		v-32.5h46.9c1.9,0,3.8-1.4,3.8-3.8c0-1.9-1.4-3.8-3.8-3.8h-46.9v-0.5c0-1,0-1.9-0.5-2.9l0,0c-1.4-5.3-6.2-9.6-12-9.6l0,0h-0.5l0,0
		H-109c-1,0-1.9,0-2.9,0.5l0,0c-5.3,1.4-9.6,6.2-10,12l0,0v0.5l0,0v0.5h-167.3c-1.9,0-3.8,1.4-3.8,3.8c0,1.9,1.4,3.8,3.8,3.8h167.8
		v32.5h-207c-19.1-30.1-19.1-68.8,0-99.4h460C114.3,621.4,114.3,659.2,131.5,690.2z"/>
	<path d="M-289.3,630.5h371c1.9,0,3.8-1.4,3.8-3.8c0-1.9-1.4-3.8-3.8-3.8h-371c-1.9,0-3.8,1.4-3.8,3.8
		C-293.1,628.6-291.6,630.5-289.3,630.5z"/>
	<path d="M141.1,458.8c-0.5-1-1.9-1.9-3.3-1.9h-468.6c-1.4,0-2.4,0.5-2.9,1.4c-22,33.5-22,77,0,110.4c0.5,1,1.9,1.4,2.9,1.4h468.6
		c1.4,0,2.4-1,3.3-1.9c0.5-1,0.5-2.4,0-3.8c-20.6-31.1-20.6-71.2,0-102.3C142,461.2,142,459.8,141.1,458.8z M131.5,563.1h-460
		c-19.1-30.1-19.1-68.8,0-99.5h460C114.3,494.7,114.3,532.5,131.5,563.1z"/>
	<path d="M-289.3,531h371c1.9,0,3.8-1.4,3.8-3.8c0-1.9-1.4-3.8-3.8-3.8h-371c-1.9,0-3.8,1.4-3.8,3.8
		C-293.1,529.1-291.6,531-289.3,531z"/>
	<path d="M-229,503.3H81.3c1.9,0,3.8-1.4,3.8-3.8s-1.4-3.8-3.8-3.8H-229c-1.9,0-3.8,1.4-3.8,3.8S-230.9,503.3-229,503.3z"/>
	<path d="M-330.4,443.5h468.6c1.4,0,2.4-1,3.3-1.9c0.5-1,0.5-2.4,0-3.8c-20.6-31.1-20.6-71.2,0-102.3c1-1,1-2.4,0-3.8
		c-0.5-1-1.9-1.9-3.3-1.9h-263.9c-1-4.3-1.9-8.1-3.8-12c-1-1.9-2.9-2.9-4.8-1.9c-1.9,1-2.9,2.9-1.9,4.8c1.9,4.3,3.3,9.1,3.8,13.9
		c1,4.3,1.4,8.6,1.4,12.9c0,8.6-1.4,17.2-4.8,24.9l0,0l0,0c-0.5,1-0.5,1.4-1,2.4c0,0.5,0,0.5-0.5,1c-1,2.4-2.4,4.8-3.8,7.2
		c-2.9,4.8-6.2,9.6-10.5,13.4c-0.5,0.5-1,1-1.4,1.4c0,0-0.5,0-0.5,0.5l0,0l0,0c-1.4,1.4-2.4,2.4-3.8,3.3c-5.3,4.3-11.5,8.1-18.2,11
		c-8.1,3.3-17.2,5.3-26.3,5.3c-9.6,0-18.6-1.9-27.3-5.3c-8.1-3.3-15.3-8.1-21.5-14.3c-0.5-0.5-1-0.5-1-1v-1
		c-6.2-6.7-11.5-13.9-14.8-22.5c0-0.5-0.5-1-0.5-1.9c-2.9-7.7-4.3-16.3-4.8-24.4c0-4.3,0.5-8.6,1.4-12.9l0,0l0,0
		c1-4.8,2.4-9.6,4.3-14.3c2.9-6.2,6.2-12.4,10.5-17.7c1.4-1.9,3.3-3.8,5.3-5.7c3.8-3.8,8.6-7.2,13.4-10c2.4-1.4,4.8-2.4,7.2-3.8l0,0
		l0,0c0.5-0.5,1-0.5,1.4-0.5c8.6-3.3,17.2-5.3,26.3-5.3c9.6,0,18.6,1.9,27.3,5.3c7.7,3.3,14.8,7.7,21,13.4l-22.5,22.5
		c-3.3-2.9-6.7-5.3-10.5-6.7c-3.8-1.4-7.7-2.4-11.5-2.9l0,0c-4.3-0.5-8.1,0-11.5,1c-1.9,0.5-4.3,1-6.2,1.9c-4.3,1.9-8.6,4.3-12,7.7
		c0,0,0,0-0.5,0.5l0,0c-1.9,1.9-3.8,4.3-5.3,6.7c-1.4,1.9-2.4,3.8-3.3,6.2l0,0l0,0c-1.9,4.8-2.9,10-2.9,14.8s1,10,2.9,14.3
		c1.9,4.8,4.8,8.6,8.1,12.4c0.5,1,1.4,1.4,1.9,1.9c3.3,2.9,6.7,5.3,11,6.7c4.8,1.9,9.6,2.9,14.8,2.9c5.3,0,10-1,14.8-2.9
		c2.4-1,4.8-1.9,6.7-3.3c1.4-1,2.9-1.9,4.3-3.3l0,0c0.5-0.5,1-1,1.4-1.4c0.5-0.5,0.5-0.5,1-1c2.9-3.3,5.7-7.2,7.7-11.5
		c1-1.9,1.4-3.8,1.9-6.2c0.5-2.9,1-5.7,1-8.6c0-1,0-1.9,0-2.9c0-1.9-1.9-3.3-3.8-3.3c-1.9,0-3.3,1.9-3.3,3.8c0,1,0,1.9,0,2.4
		c0,2.4-0.5,4.8-1,7.2c-0.5,1.9-1,3.8-1.9,5.3c-1.4,3.8-3.8,6.7-6.2,9.6l-0.5,0.5l-0.5,0.5c-0.5,0.5-0.5,0.5-1,1l0,0l0,0
		c-1,1-2.4,1.9-3.8,2.9c-1.4,1-3.3,1.9-5.3,2.9c-3.8,1.4-7.7,2.4-12,2.4c-3.8,0-8.1-1-12.4-2.4c-3.3-1.4-6.2-3.3-9.1-5.7
		c-0.5-0.5-1-1-1.4-1.4c-2.9-2.9-5.3-6.2-6.7-10s-2.4-7.7-2.4-12s1-8.1,2.4-12.4c1-1.9,1.4-3.3,2.9-5.3c1.4-1.9,2.9-3.8,4.3-5.3
		l0.5-0.5c2.9-2.9,6.2-4.8,9.6-6.2c1.4-0.5,3.3-1,4.8-1.4c2.4-0.5,4.8-1,6.7-1c1,0,1.9,0,2.4,0l0,0l0,0c3.3,0.5,6.2,1,9.6,2.4
		c2.9,1.4,5.7,2.9,8.6,5.3l-22.9,23c-1.4,1.4-1.4,3.8,0,5.3c0.5,0.5,1.4,1,2.4,1s1.9-0.5,2.4-1l76-76l18.2,3.3h0.5
		c1,0,1.9-0.5,2.4-1l31.1-31.1c1-1,1.4-2.4,1-3.8c-0.5-1.4-1.4-2.4-2.9-2.4l-17.2-3.3l-3.3-17.2c-0.5-1.4-1.4-2.4-2.4-2.9
		c-1.4-0.5-2.9,0-3.8,1l-31.1,31.1c-1,1-1.4,1.9-1,3.3l3.3,17.7l-18.6,20.6c-6.7-6.2-14.3-11.5-22.9-15.3
		c-9.6-3.8-19.6-6.2-30.1-6.2c-10,0-19.6,1.9-29.2,5.7c-0.5,0.5-1.4,0.5-1.9,1l0,0c-2.9,1.4-5.3,2.4-7.7,3.8
		c-5.3,3.3-10.5,7.2-14.8,11.5c-1.9,1.9-3.8,4.3-5.7,6.2c-4.8,5.7-8.6,12.4-11.5,19.1c-1.9,4.3-2.9,8.6-3.8,12.9h-55
		c-1.4,0-2.4,0.5-2.9,1.4c-22,33.5-22,77,0,110.4C-332.8,443-331.3,443.5-330.4,443.5z M-98.5,227.9l2.4,13.4
		c0.5,1.4,1.4,2.4,2.9,2.9l13.4,2.4l-25.3,25.3L-121,269l-2.4-16.3L-98.5,227.9z M-328.5,336.9h50.7c0,0.5,0,1.4,0,1.9s0,1,0,1.9
		c0,2.4-0.5,4.3-0.5,6.7c0,7.7,1.4,15.3,3.3,22.5h-14.3c-1.9,0-3.8,1.4-3.8,3.8s1.4,3.8,3.8,3.8h16.7c2.9,7.2,7.2,13.9,12.4,20.1
		h-29.2c-1.9,0-3.8,1.4-3.8,3.8c0,1.9,1.4,3.8,3.8,3.8h35.9c6.7,6.2,13.9,11,22.5,14.3c8.6,3.8,17.7,5.7,26.8,5.7c1,0,1.9,0,2.9,0
		h0.5c10,0,20.1-1.9,29.2-5.7c7.2-2.9,13.9-7.2,20.1-12c1-1,1.9-1.9,3.3-2.9H21.5c1.9,0,3.8-1.4,3.8-3.8c0-1.9-1.4-3.8-3.8-3.8H-142
		c2.9-3.3,5.3-6.7,7.7-10.5c1.4-2.9,2.9-5.3,3.8-7.7c0.5-0.5,0.5-1,0.5-1.4c0,0,0,0,0-0.5H80.8c1.9,0,3.8-1.4,3.8-3.8
		s-1.4-3.8-3.8-3.8h-208c2.4-7.2,3.3-14.8,3.3-22.5c0-3.3-0.5-6.2-1-9.6H131c-17.7,30.6-17.7,68.4,0,99.5h-459.5
		C-347.6,405.8-347.6,367.5-328.5,336.9z"/>
	<path fill="#22A9D3" d="M-61.2,716.5c4.3-3.8,6.7-9.1,6.7-14.8c0-3.8-1-7.2-2.9-10.5c-3.8-5.7-10-9.1-16.7-9.1
		c-6.7,0-12.9,3.3-16.7,9.1c-1.9,2.9-2.9,6.7-2.9,10.5c0,5.7,2.4,11,6.7,14.8c3.3,3.3,8.1,4.8,12.9,4.8
		C-69.3,721.8-64.5,719.9-61.2,716.5z M-86.1,702.2c0-2.4,0.5-4.8,1.9-6.7c2.4-3.8,6.2-5.7,10.5-5.7c4.3,0,8.1,2.4,10.5,5.7
		c1.4,1.9,1.9,4.3,1.9,6.7c0,3.8-1.4,6.7-4.3,9.1c-4.8,3.8-12,3.8-16.3,0C-84.6,708.9-86.1,705.5-86.1,702.2z"/>
</g>
<circle fill="none" stroke="#1C9AB7" stroke-width="1.8" stroke-miterlimit="10" cx="-201.3" cy="346.9" r="74.1"/>
<polygon fill="#FFFFFF" points="-134.3,288.1 -139.1,291 -153,304.9 -145.3,330.2 -112.8,329.7 "/>
</svg>
