<svg xmlns="http://www.w3.org/2000/svg" xmlns:xlink="http://www.w3.org/1999/xlink" preserveAspectRatio="xMidYMid" width="91" height="91" viewBox="0 0 91 91">
  <path fill="#d6ebf2" d="M87.198,49.268 C87.198,49.268 83.657,52.806 83.657,52.806 C83.657,52.806 80.320,56.146 80.320,56.146 C80.320,56.146 77.652,58.816 77.652,58.816 C77.652,58.816 75.398,61.067 75.398,61.067 C75.398,61.067 73.311,63.159 73.311,63.159 C73.311,63.159 71.112,65.355 71.112,65.355 C72.344,63.772 73.429,62.072 74.351,60.271 C74.533,59.913 74.714,59.549 74.887,59.181 C75.490,57.885 76.013,56.538 76.445,55.157 C76.709,54.293 76.947,53.417 77.145,52.525 C77.355,51.557 77.530,50.572 77.653,49.576 C77.758,48.752 77.828,47.923 77.869,47.084 C77.884,46.756 77.897,46.431 77.903,46.103 C77.903,46.103 77.653,46.113 77.653,46.113 C77.653,46.113 51.137,47.358 51.137,47.358 C51.304,46.846 51.405,46.312 51.428,45.751 C51.432,45.664 51.436,45.577 51.436,45.489 C51.436,45.405 51.432,45.316 51.428,45.229 C51.405,44.671 51.304,44.131 51.135,43.620 C51.135,43.620 77.653,44.864 77.653,44.864 C77.653,44.864 77.903,44.876 77.903,44.876 C77.894,44.365 77.871,43.853 77.838,43.348 C77.797,42.691 77.736,42.044 77.653,41.402 C77.443,39.747 77.110,38.129 76.665,36.556 C76.543,36.135 76.414,35.719 76.276,35.303 C75.737,33.669 75.068,32.091 74.287,30.586 C74.011,30.047 73.719,29.521 73.410,29.002 C72.714,27.824 71.945,26.694 71.111,25.619 C71.111,25.619 72.590,27.103 72.590,27.103 C72.590,27.103 75.186,29.698 75.186,29.698 C75.186,29.698 77.654,32.164 77.654,32.164 C77.654,32.164 80.077,34.586 80.077,34.586 C80.077,34.586 82.673,37.181 82.673,37.181 C82.673,37.181 86.415,40.924 86.415,40.924 C86.415,40.924 90.979,45.487 90.979,45.487 C90.979,45.487 87.198,49.268 87.198,49.268 ZM47.803,46.861 C47.576,47.253 47.247,47.579 46.858,47.808 C46.642,47.940 46.407,48.037 46.154,48.100 C45.940,48.157 45.718,48.183 45.487,48.183 C45.487,48.183 45.487,48.183 45.483,48.183 C45.254,48.183 45.030,48.157 44.814,48.100 C44.563,48.038 44.330,47.940 44.112,47.808 C43.722,47.581 43.396,47.254 43.166,46.861 C43.037,46.647 42.939,46.409 42.876,46.159 C42.817,45.947 42.790,45.720 42.790,45.489 C42.790,45.261 42.817,45.035 42.874,44.820 C42.938,44.571 43.037,44.335 43.166,44.116 C43.395,43.726 43.721,43.400 44.112,43.170 C44.330,43.039 44.563,42.943 44.814,42.878 C45.030,42.821 45.253,42.794 45.483,42.794 C45.487,42.794 45.487,42.794 45.487,42.794 C45.718,42.794 45.940,42.821 46.154,42.878 C46.407,42.943 46.642,43.039 46.858,43.170 C47.246,43.399 47.575,43.725 47.803,44.116 C47.934,44.335 48.032,44.571 48.098,44.820 C48.151,45.035 48.180,45.261 48.180,45.489 C48.180,45.720 48.151,45.947 48.096,46.159 C48.033,46.409 47.935,46.647 47.803,46.861 ZM45.486,39.537 C45.486,39.537 45.486,39.537 45.482,39.537 C45.395,39.537 45.309,39.540 45.223,39.541 C44.663,39.568 44.124,39.669 43.615,39.834 C43.615,39.834 44.857,13.318 44.857,13.318 C44.857,13.318 44.869,13.069 44.869,13.069 C44.869,13.069 44.875,12.930 44.875,12.930 C44.875,12.930 44.893,12.605 44.893,12.605 C44.893,12.605 44.944,11.490 44.944,11.490 C44.944,11.490 45.002,10.258 45.002,10.258 C45.002,10.258 45.123,7.666 45.123,7.666 C45.123,7.666 45.191,6.182 45.191,6.182 C45.191,6.182 45.482,-0.003 45.482,-0.003 C45.482,-0.003 45.482,0.014 45.482,0.014 C45.482,0.014 45.486,-0.007 45.486,-0.007 C45.486,-0.007 45.774,6.182 45.774,6.182 C45.774,6.182 45.844,7.666 45.844,7.666 C45.844,7.666 45.966,10.258 45.966,10.258 C45.966,10.258 46.023,11.490 46.023,11.490 C46.023,11.490 46.074,12.605 46.074,12.605 C46.074,12.605 46.093,12.930 46.093,12.930 C46.093,12.930 46.099,13.069 46.099,13.069 C46.099,13.069 46.109,13.318 46.109,13.318 C46.109,13.318 47.354,39.834 47.354,39.834 C46.844,39.669 46.302,39.568 45.745,39.541 C45.659,39.540 45.572,39.537 45.486,39.537 ZM39.831,43.622 C39.662,44.131 39.564,44.672 39.534,45.228 C39.532,45.315 39.532,45.404 39.532,45.488 C39.532,45.577 39.532,45.663 39.534,45.750 C39.561,46.311 39.659,46.845 39.828,47.356 C39.828,47.356 13.310,46.112 13.310,46.112 C13.310,46.112 13.061,46.102 13.061,46.102 C13.069,46.431 13.078,46.756 13.094,47.082 C13.135,47.921 13.208,48.751 13.310,49.575 C13.436,50.572 13.607,51.556 13.820,52.524 C14.018,53.416 14.253,54.292 14.521,55.156 C14.953,56.537 15.474,57.883 16.079,59.180 C16.251,59.548 16.429,59.912 16.612,60.270 C17.536,62.071 18.621,63.772 19.852,65.355 C19.852,65.355 17.653,63.157 17.653,63.157 C17.653,63.157 15.563,61.066 15.563,61.066 C15.563,61.066 13.311,58.815 13.311,58.815 C13.311,58.815 10.643,56.144 10.643,56.144 C10.643,56.144 7.308,52.807 7.308,52.807 C7.308,52.807 3.771,49.269 3.771,49.269 C3.771,49.269 -0.012,45.488 -0.012,45.488 C-0.012,45.488 4.551,40.925 4.551,40.925 C4.551,40.925 8.293,37.182 8.293,37.182 C8.293,37.182 10.891,34.586 10.891,34.586 C10.891,34.586 13.312,32.165 13.312,32.165 C13.312,32.165 15.778,29.699 15.778,29.699 C15.778,29.699 18.374,27.105 18.374,27.105 C18.374,27.105 19.858,25.620 19.858,25.620 C19.024,26.695 18.255,27.825 17.556,29.003 C17.250,29.521 16.956,30.048 16.679,30.587 C15.899,32.092 15.232,33.670 14.690,35.304 C14.553,35.720 14.423,36.136 14.304,36.558 C13.855,38.130 13.523,39.748 13.313,41.404 C13.233,42.045 13.169,42.694 13.128,43.349 C13.095,43.854 13.076,44.366 13.064,44.878 C13.064,44.878 13.313,44.865 13.313,44.865 C13.313,44.865 39.831,43.622 39.831,43.622 ZM45.482,51.441 C45.486,51.441 45.486,51.441 45.486,51.441 C45.572,51.441 45.659,51.441 45.743,51.435 C46.300,51.411 46.842,51.315 47.352,51.142 C47.352,51.142 46.107,77.660 46.107,77.660 C46.107,77.660 46.097,77.909 46.097,77.909 C46.097,77.909 46.085,78.147 46.085,78.147 C46.085,78.147 45.766,78.208 45.766,78.208 C45.766,78.208 46.081,78.262 46.081,78.262 C46.081,78.262 46.006,79.872 46.006,79.872 C46.006,79.872 45.986,80.299 45.986,80.299 C45.986,80.299 45.823,83.756 45.823,83.756 C45.823,83.756 45.794,84.381 45.794,84.381 C45.794,84.381 45.486,90.984 45.486,90.984 C45.486,90.984 45.482,90.964 45.482,90.964 C45.482,90.964 45.482,90.984 45.482,90.984 C45.482,90.984 45.171,84.381 45.171,84.381 C45.171,84.381 45.144,83.756 45.144,83.756 C45.144,83.756 44.982,80.299 44.982,80.299 C44.982,80.299 44.961,79.872 44.961,79.872 C44.961,79.872 44.887,78.262 44.887,78.262 C44.887,78.262 45.200,78.208 45.200,78.208 C45.200,78.208 44.881,78.147 44.881,78.147 C44.881,78.147 44.869,77.909 44.869,77.909 C44.869,77.909 44.857,77.660 44.857,77.660 C44.857,77.660 43.615,51.141 43.615,51.141 C44.124,51.314 44.663,51.410 45.223,51.434 C45.309,51.441 45.395,51.441 45.482,51.441 ZM45.482,78.262 C45.482,78.262 45.761,78.208 45.761,78.208 C45.761,78.208 45.481,78.160 45.481,78.160 C45.481,78.160 45.206,78.208 45.206,78.208 C45.206,78.208 45.482,78.262 45.482,78.262 Z" fill-rule="evenodd"/>
</svg>
