<svg 
 xmlns="http://www.w3.org/2000/svg"
 xmlns:xlink="http://www.w3.org/1999/xlink"
 width="20px" height="24px">
<path fill-rule="evenodd"  opacity="0.259" fill="rgb(0, 0, 0)"
 d="M13.137,3.944 C12.493,3.570 12.095,2.874 12.096,2.125 L12.096,2.121 C12.097,0.949 11.158,-0.000 10.000,-0.000 C8.842,-0.000 7.903,0.949 7.903,2.121 L7.903,2.125 C7.904,2.875 7.507,3.570 6.862,3.944 C2.195,6.656 4.877,15.659 -0.000,17.251 L-0.000,18.999 L20.000,18.999 L20.000,17.251 C15.123,15.659 17.805,6.656 13.137,3.944 ZM10.000,0.999 C10.552,0.999 11.000,1.448 11.000,1.999 C11.000,2.552 10.552,2.999 10.000,2.999 C9.448,2.999 9.000,2.552 9.000,1.999 C9.000,1.448 9.448,0.999 10.000,0.999 ZM13.000,20.999 C13.000,22.598 11.608,23.999 10.029,23.999 C8.450,23.999 7.000,22.598 7.000,20.999 L13.000,20.999 Z"/>
</svg>