<svg 
 xmlns="http://www.w3.org/2000/svg"
 xmlns:xlink="http://www.w3.org/1999/xlink"
 width="24px" height="23px">
<path fill-rule="evenodd"  opacity="0.541" fill="#84899a"
 d="M23.999,11.148 L22.639,12.613 L12.000,2.730 L1.361,12.598 L-0.000,11.133 L12.000,-0.000 L23.999,11.148 ZM20.000,12.897 L18.000,23.000 L6.000,23.000 L4.000,12.897 L12.000,5.453 L20.000,12.897 ZM13.000,18.999 C13.000,18.448 12.552,18.000 12.000,18.000 C11.448,18.000 11.000,18.448 11.000,18.999 C11.000,19.552 11.448,19.999 12.000,19.999 C12.552,19.999 13.000,19.552 13.000,18.999 ZM14.000,14.000 C14.000,12.895 13.104,12.000 12.000,12.000 C10.896,12.000 9.999,12.895 9.999,14.000 C9.999,15.104 10.896,16.000 12.000,16.000 C13.104,16.000 14.000,15.104 14.000,14.000 Z"/>
</svg>