<svg xmlns="http://www.w3.org/2000/svg" xmlns:xlink="http://www.w3.org/1999/xlink" width="30px" height="30px" viewBox="0 0 30 30">
<path fill-rule="evenodd"  fill="rgb(255, 0, 0)" d="M15.000,-0.000 C23.284,-0.000 30.000,6.715 30.000,15.000 C30.000,23.284 23.284,30.000 15.000,30.000 C6.716,30.000 -0.000,23.284 -0.000,15.000 C-0.000,6.715 6.716,-0.000 15.000,-0.000 Z"/>
<path fill-rule="evenodd" fill="rgb(255, 255, 255)"
 d="M21.864,12.373 C21.864,12.373 21.720,11.292 21.302,10.820 C20.771,10.202 20.172,10.194 19.906,10.153 C17.948,9.999 15.010,9.999 15.010,9.999 L14.995,9.999 C14.995,9.999 12.065,9.999 10.106,10.153 C9.826,10.194 9.234,10.202 8.703,10.820 C8.285,11.292 8.141,12.373 8.141,12.373 C8.141,12.373 7.996,13.641 7.996,14.894 L7.996,15.056 L7.996,16.089 C7.996,17.357 8.141,18.610 8.141,18.610 C8.141,18.610 8.285,19.691 8.703,20.171 C9.234,20.797 9.932,20.773 10.251,20.837 C11.367,20.959 15.010,21.000 15.010,21.000 C15.010,21.000 17.948,20.984 19.906,20.837 C20.172,20.797 20.771,20.797 21.302,20.171 C21.720,19.691 21.864,18.610 21.864,18.610 C21.864,18.610 22.001,17.357 22.001,16.089 L22.001,15.121 L22.001,14.894 C22.001,13.641 21.864,12.373 21.864,12.373 L21.864,12.373 ZM17.340,15.333 L13.553,17.520 L13.553,14.154 L13.553,13.129 L15.268,14.130 L17.340,15.333 Z"/>
</svg>