<svg xmlns="http://www.w3.org/2000/svg" xmlns:xlink="http://www.w3.org/1999/xlink" width="30" height="30" viewBox="0 0 28 28">
<path fill-rule="evenodd"  stroke="rgb(0, 0, 0)" stroke-width="0.59px" stroke-linecap="butt" stroke-linejoin="miter" fill="rgb(38, 38, 38)"
 d="M6.882,13.288 C6.882,9.754 9.747,6.872 13.277,6.872 C16.820,6.872 19.685,9.754 19.685,13.288 C19.685,16.835 16.820,19.703 13.277,19.703 C9.747,19.703 6.882,16.835 6.882,13.288 L6.882,13.288 ZM19.893,0.748 L6.675,0.748 C3.422,0.748 0.751,3.408 0.751,6.678 L0.751,19.911 C0.751,23.167 3.422,25.841 6.675,25.841 L19.893,25.841 C23.159,25.841 25.816,23.167 25.816,19.911 L25.816,6.678 C25.816,3.408 23.159,0.748 19.893,0.748 L19.893,0.748 ZM6.675,2.230 L19.893,2.230 C22.343,2.230 24.335,4.225 24.335,6.678 L24.335,19.911 C24.335,22.364 22.343,24.358 19.893,24.358 L6.675,24.358 C4.224,24.358 2.232,22.364 2.232,19.911 L2.232,6.678 C2.232,4.225 4.224,2.230 6.675,2.230 L6.675,2.230 ZM21.207,4.101 C20.488,4.101 19.906,4.683 19.906,5.403 C19.906,6.124 20.488,6.706 21.207,6.706 C21.927,6.706 22.508,6.124 22.508,5.403 C22.508,4.683 21.927,4.101 21.207,4.101 L21.207,4.101 ZM21.359,13.288 C21.359,8.826 17.747,5.196 13.277,5.196 C8.820,5.196 5.194,8.826 5.194,13.288 C5.194,17.763 8.820,21.380 13.277,21.380 C17.747,21.380 21.359,17.763 21.359,13.288 L21.359,13.288 Z"/>
</svg>