<svg 
 xmlns="http://www.w3.org/2000/svg"
 xmlns:xlink="http://www.w3.org/1999/xlink"
 width="31px" height="30px">
<path fill-rule="evenodd"  opacity="0.341" fill="rgb(0, 0, 0)"
 d="M23.286,0.166 C23.062,-0.058 22.703,-0.058 22.479,0.166 L3.020,19.606 C2.975,19.651 2.885,19.741 2.885,19.831 L0.016,29.238 C-0.029,29.416 0.016,29.640 0.150,29.820 C0.240,29.909 0.419,29.999 0.554,29.999 C0.598,29.999 0.643,29.999 0.733,29.954 L10.149,27.087 C10.238,27.042 10.328,26.998 10.373,26.953 L29.832,7.512 C30.056,7.287 30.056,6.929 29.832,6.705 L23.286,0.166 ZM9.655,26.057 L1.406,28.566 L3.916,20.323 L22.837,1.420 L28.577,7.154 L9.655,26.057 Z"/>
</svg>