<svg 
 xmlns="http://www.w3.org/2000/svg"
 xmlns:xlink="http://www.w3.org/1999/xlink"
 width="30px" height="30px">
<path fill-rule="evenodd"  opacity="0.341" fill="rgb(0, 0, 0)"
 d="M29.342,14.319 L15.749,14.319 L15.749,0.716 C15.749,0.285 15.390,-0.003 15.030,-0.003 C14.599,-0.003 14.311,0.357 14.311,0.716 L14.311,14.319 L0.718,14.319 C0.287,14.319 -0.001,14.679 -0.001,15.039 C-0.001,15.399 0.359,15.758 0.718,15.758 L14.311,15.758 L14.311,29.290 C14.311,29.721 14.671,30.009 15.030,30.009 C15.462,30.009 15.749,29.649 15.749,29.290 L15.749,15.758 L29.270,15.758 C29.702,15.758 29.989,15.399 29.989,15.039 C29.989,14.679 29.774,14.319 29.342,14.319 Z"/>
</svg>