<?xml version="1.0" encoding="utf-8"?>
<!-- Generator: Adobe Illustrator 18.1.1, SVG Export Plug-In . SVG Version: 6.00 Build 0)  -->
<svg version="1.1" xmlns="http://www.w3.org/2000/svg" xmlns:xlink="http://www.w3.org/1999/xlink" x="0px" y="0px"
	 viewBox="-368 584.9 574.8 130.1" enable-background="new -368 584.9 574.8 130.1" xml:space="preserve">
<g>
	<path fill="#22A9D3" d="M-321.1,596.6c-38.6,20.7-57,61.2-41.4,90.5l0,0c15.6,29.3,59.8,36.6,98.4,16.2l0,0
		c38.6-20.7,57-61.2,41.4-90.5l0,0c-9.8-18.2-29.9-27.9-53.1-27.9l0,0C-290.6,584.9-306.3,588.8-321.1,596.6L-321.1,596.6z"/>
	<path fill="#22A9D3" d="M77.4,658.4c0,5.9,3.9,10.1,9.5,10.1l0,0l0,0c6.7,0,11.7-5,11.7-12.3c0-6.1-3.9-10.3-9.8-10.3
		C82.2,646.1,77.4,651.7,77.4,658.4L77.4,658.4z"/>
	<g>
		<path d="M-175.2,654.5c0,17.3-10.9,31.6-28.5,31.6c-14,0-22.4-7.8-22.4-22.1c0-18.2,11.7-31.3,28.2-31.3
			C-183.6,632.7-175.2,640.8-175.2,654.5z M-212.7,664.3c0,7.3,3.6,11.5,10.1,11.5c10.3,0,14.3-13.1,14.3-21.8
			c0-7-3.6-11.2-9.8-11.2C-206.2,642.7-212.7,652.2-212.7,664.3z"/>
		<path d="M-146.7,686c-14,0-22.6-6.4-22.6-21.8c0-17,10.3-31,27.9-31c11.5,0,21.2,5.9,21.2,18.7H-133
			c0-5.9-3.1-8.7-8.7-8.7c-10.6,0-14.3,12.6-14.3,21.5c0,7.8,3.4,11.5,9.8,11.5c5.3,0,8.7-3.1,10.6-9.8h13.1
			C-125.8,679.3-134.1,686-146.7,686z"/>
		<path d="M-96.1,641.1c4.5-5.3,10.3-8.1,16.8-8.1c8.4,0,14.5,5.3,14.5,12.6c0,2.5-0.3,5.6-1.1,8.7l-6.1,30.2h-13.4
			l5.9-28.2c0.6-3.1,0.8-4.2,0.8-5.9c0-4.2-2.5-6.4-6.7-6.4c-8.4,0-12.3,7.3-13.7,14.5l-5.3,26h-13.1l14.3-69.3h13.1L-96.1,641.1z"
			/>
		<path d="M-39.4,641.3c4.5-5.3,10.1-8.7,17-8.7c8.7,0,14.5,5,14.5,12.6c0,2.5-0.3,5.3-1.1,8.9l-6.1,30.2h-13.7
			l6.1-29.6c0.3-1.7,0.6-3.4,0.6-4.8c0-3.9-2.5-6.1-6.7-6.1c-7.8,0-11.7,6.7-13.1,13.7l-5.6,26.8h-13.4l10.3-50.3h12.9L-39.4,641.3z
			"/>
		<path d="M9.8,684.4H-3.6l10.3-50.3h13.4L9.8,684.4z M21.8,626.5H8.4l2.2-11.5H24L21.8,626.5z"/>
		<path d="M41.4,652.5l19.6-18.4h16.5l-21.8,19.3l12.3,31H53.1l-7.8-22.1l-7.5,6.4l-3.4,15.6H21.2l14.5-69.3h13.1
			L41.4,652.5z"/>
	</g>
	<path fill="#FFFFFF" d="M-285.9,612h-49.5c-0.6,0-1.1,0.6-1.4,1.1l0,0l-2.5,13.1c0,0.3,0,0.8,0.3,1.1l0,0c0.3,0.3,0.6,0.6,1.1,0.6
		l0,0h26.5l-40,47.2c-0.3,0.3-0.3,0.3-0.3,0.6l0,0l-1.7,8.7c0,0.3,0,0.8,0.3,1.1l0,0c0.3,0.3,0.6,0.6,1.1,0.6l0,0h53.1
		c0.6,0,1.1-0.6,1.4-1.1l0,0l2.5-13.1c0-0.3,0-0.8-0.3-1.1l0,0c-0.3-0.3-0.6-0.6-1.1-0.6l0,0h-29.3l39.1-46.4
		c0.3-0.3,0.3-0.3,0.3-0.6l0,0l1.7-9.5c0-0.3,0-0.8-0.3-1.1l0,0C-285,612.3-285.6,612-285.9,612z"/>
	<path fill="#FFFFFF" d="M-262.4,681.6c2.8-2.2,2.5-2,4.2-3.9l0,0c-0.3,2-0.3,3.9-0.3,5.6l0,0c0,0.3,0,0.8,0.3,0.8l0,0
		c0.3,0.3,0.6,0.3,0.8,0.3l0,0h14c0.3,0,0.8-0.3,0.8-0.3l0,0c0.3-0.3,0.3-0.6,0.3-0.8l0,0c-0.3-5.9,0.6-16.2,2-22.9l0,0l5.6-27.1
		c0-0.6-0.3-1.4-0.8-1.7l0,0c-5-1.7-12-2.5-17.6-2.5c-3.9,0-6.4,0.3-9.8,1.1l-2.2,0.8c-17,8.1-27.1,20.7-27.1,36
		c0,11.5,6.7,19.3,17,19.3l0,0c3.1,0,7-0.6,10.6-3.1L-262.4,681.6z M-264.4,669.8c-2,1.1-2.8,1.4-4.2,1.4l0,0c-4.2,0-5-4.5-5-7.3
		l0,0c0-6.7,4.5-14.5,8.9-17.9l0.8-0.6c2-1.4,4.2-2.2,6.7-2.2l0,0c0.8,0,1.7,0,2.5,0.3l0,0l-2.2,10.6c-1.4,7.8-3.6,12.6-6.7,15.1
		L-264.4,669.8z"/>
	<g>
		<path d="M149.2,644.1c-2.2-0.6-3.9-0.8-5.9-0.8c-11.2,0-15.6,8.4-17.6,17.6l-5,23.5h-14.5l11.2-53.1h13.7l-2.2,9.8
			c4.5-6.4,9.8-11.2,18.2-11.2c1.7,0,2.5,0,4.8,0.6L149.2,644.1z"/>
		<path d="M195.6,684.4h-14l1.7-7.8c-4.5,6.1-10.1,9.2-17.9,9.2c-9.8,0-15.9-5.3-15.9-14c0-2.2,0.3-5,1.1-8.7
			l6.7-32.1h14.8l-6.1,28.8c-0.8,3.9-1.1,6.4-1.1,7.8c0,4.2,2.5,6.7,7.5,6.7c8.4,0,12.3-7.5,13.7-14.8l6.1-28.2h14.5L195.6,684.4z"
			/>
	</g>
</g>
</svg>
