<svg xmlns="http://www.w3.org/2000/svg" width="109" height="111" viewBox="0 0 109 111">
  <path id="Фигура_848" data-name="Фигура 848" class="cls-1" d="M1551.43,209a1.207,1.207,0,0,0-1.21,1.206V224.8a7.27,7.27,0,1,0,2.42,0V210.206A1.207,1.207,0,0,0,1551.43,209Zm46.03,0a1.216,1.216,0,0,0-1.22,1.206V224.8a7.265,7.265,0,1,0,2.43,0V210.206A1.213,1.213,0,0,0,1597.46,209Zm-60.52,7.239a10.923,10.923,0,0,0-10.94,10.9v72.316a10.923,10.923,0,0,0,10.94,10.9h63.85a18.133,18.133,0,1,0,22.1-25.488V227.135a10.923,10.923,0,0,0-10.94-10.9h-7.23a1.207,1.207,0,1,0,0,2.413h7.23a8.467,8.467,0,0,1,8.52,8.483V245.2h-92.05V227.135a8.461,8.461,0,0,1,8.52-8.483h7.23a1.207,1.207,0,1,0,0-2.413h-7.23Zm21.76,0a1.207,1.207,0,1,0,0,2.413h31.49a1.207,1.207,0,1,0,0-2.413H1558.7Zm-7.27,10.859a4.826,4.826,0,1,1-4.84,4.826A4.821,4.821,0,0,1,1551.43,227.1Zm46.03,0a4.826,4.826,0,1,1-4.85,4.826A4.813,4.813,0,0,1,1597.46,227.1Zm-69.04,20.511h92.05v36.572a18.493,18.493,0,0,0-3.64-.377,18.039,18.039,0,0,0-17.1,24.131h-62.79a8.461,8.461,0,0,1-8.52-8.484V247.609Zm88.41,38.608a15.685,15.685,0,1,1-15.74,15.685,15.7,15.7,0,0,1,15.74-15.685h0Zm8.25,9.653a1.043,1.043,0,0,0-.72.452l-8.97,11.16-7.53-5.354a1.268,1.268,0,0,0-1.7.264,1.252,1.252,0,0,0,.27,1.7l8.47,6.033a1.268,1.268,0,0,0,1.67-.227l9.69-12.065a1.181,1.181,0,0,0-.23-1.734A1.352,1.352,0,0,0,1625.08,295.87Z" transform="translate(-1526 -209)"/>
</svg>
