<svg
 xmlns="http://www.w3.org/2000/svg"
 xmlns:xlink="http://www.w3.org/1999/xlink"
 width="14px" height="14px">
<path fill-rule="evenodd" d="M6.978,1.224 C8.076,2.343 8.418,3.943 8.006,5.362 L13.862,11.333 L13.999,14.000 L10.695,13.719 L10.695,12.035 L9.043,12.035 L9.043,10.350 L7.391,10.350 L5.252,8.169 C3.861,8.589 2.293,8.240 1.195,7.121 C-0.402,5.492 -0.402,2.852 1.195,1.224 C2.792,-0.404 5.381,-0.404 6.978,1.224 L6.978,1.224 ZM3.673,2.347 C3.293,1.960 2.677,1.960 2.297,2.347 C1.916,2.735 1.916,3.364 2.297,3.751 C2.677,4.139 3.293,4.139 3.673,3.751 C4.054,3.364 4.054,2.735 3.673,2.347 Z"/>
</svg>
