<svg xmlns="http://www.w3.org/2000/svg" xmlns:xlink="http://www.w3.org/1999/xlink" preserveAspectRatio="xMidYMid" width="15" height="19" viewBox="0 0 15 19">
  <path d="M12.500,7.916 C12.500,7.916 12.500,4.750 12.500,4.750 C12.500,2.127 10.261,-0.000 7.500,-0.000 C4.739,-0.000 2.500,2.127 2.500,4.750 C2.500,4.750 2.500,7.916 2.500,7.916 C2.500,7.916 -0.000,7.916 -0.000,7.916 C-0.000,7.916 -0.000,19.000 -0.000,19.000 C-0.000,19.000 15.000,19.000 15.000,19.000 C15.000,19.000 15.000,7.916 15.000,7.916 C15.000,7.916 12.500,7.916 12.500,7.916 ZM4.167,7.916 C4.167,7.916 4.167,4.750 4.167,4.750 C4.167,3.003 5.662,1.583 7.500,1.583 C9.338,1.583 10.833,3.003 10.833,4.750 C10.833,4.750 10.833,7.916 10.833,7.916 C10.833,7.916 4.167,7.916 4.167,7.916 Z" fill-rule="evenodd"/>
</svg>
