<?xml version="1.0" encoding="utf-8"?>
<!-- Generator: Adobe Illustrator 18.1.1, SVG Export Plug-In . SVG Version: 6.00 Build 0)  -->
<svg version="1.1" xmlns="http://www.w3.org/2000/svg" xmlns:xlink="http://www.w3.org/1999/xlink" x="0px" y="0px"
	 viewBox="77.3 -7.5 162.8 32" enable-background="new 77.3 -7.5 162.8 32" xml:space="preserve">
<path fill="#22A9D3" d="M88.8-4.6c-9.4,5.1-14,15-10.1,22.3l0,0c3.8,7.2,14.6,9,24,4l0,0c9.4-5.1,14-15,10.1-22.3l0,0
	c-2.4-4.5-7.3-6.8-13-6.8l0,0C96.2-7.5,92.4-6.6,88.8-4.6L88.8-4.6z"/>
<path fill="#22A9D3" d="M186.3,10.6c0,1.4,0.9,2.5,2.3,2.5l0,0h0c1.7,0,2.9-1.2,2.9-3c0-1.5-1-2.5-2.4-2.5
	C187.4,7.5,186.3,8.9,186.3,10.6L186.3,10.6z"/>
<g>
	<path d="M124.5,9.6c0,4.3-2.6,7.7-7,7.7c-3.4,0-5.4-1.9-5.4-5.4c0-4.5,2.9-7.7,6.9-7.7
		C122.4,4.3,124.5,6.2,124.5,9.6z M115.3,12c0,1.8,0.9,2.9,2.5,2.9c2.5,0,3.5-3.2,3.5-5.3c0-1.8-0.9-2.8-2.4-2.8
		C116.8,6.7,115.3,9.1,115.3,12z"/>
	<path d="M131.4,17.4c-3.4,0-5.5-1.6-5.5-5.4c0-4.2,2.5-7.7,6.9-7.7c2.8,0,5.2,1.4,5.2,4.6h-3.2
		c0-1.4-0.8-2.1-2.1-2.1c-2.6,0-3.5,3.1-3.5,5.3c0,1.9,0.8,2.8,2.4,2.8c1.3,0,2.1-0.8,2.6-2.4h3.2C136.5,15.7,134.5,17.4,131.4,17.4
		z"/>
	<path d="M143.8,6.3c1.1-1.3,2.5-2,4.1-2c2.1,0,3.5,1.3,3.5,3.1c0,0.6-0.1,1.4-0.3,2.1l-1.5,7.4h-3.3l1.4-6.9
		c0.2-0.8,0.2-1,0.2-1.5c0-1-0.6-1.6-1.6-1.6c-2.1,0-3,1.8-3.4,3.6l-1.3,6.4h-3.2l3.5-17h3.2L143.8,6.3z"/>
	<path d="M157.7,6.4c1.1-1.3,2.5-2.1,4.2-2.1c2.1,0,3.6,1.3,3.6,3.1c0,0.6-0.1,1.3-0.3,2.2l-1.5,7.4h-3.3l1.5-7.3
		c0.1-0.4,0.1-0.8,0.1-1.2c0-1-0.6-1.5-1.7-1.5c-1.9,0-2.9,1.6-3.2,3.4l-1.4,6.6h-3.3l2.5-12.4h3.1L157.7,6.4z"/>
	<path d="M169.7,17h-3.3L169,4.6h3.3L169.7,17z M172.6,2.7h-3.3l0.6-2.8h3.3L172.6,2.7z"/>
	<path d="M177.4,9.1l4.8-4.5h4.1L181,9.4l3,7.6h-3.6l-1.9-5.4l-1.8,1.6l-0.8,3.8h-3.2l3.5-17.1h3.2L177.4,9.1z"/>
</g>
<g>
	<path d="M199.5,17.4c-3.4,0-5.5-1.6-5.5-5.4c0-4.2,2.5-7.7,6.9-7.7c2.8,0,5.2,1.4,5.2,4.6h-3.2
		c0-1.4-0.8-2.1-2.1-2.1c-2.6,0-3.5,3.1-3.5,5.3c0,1.9,0.8,2.8,2.4,2.8c1.3,0,2.1-0.8,2.6-2.4h3.2C204.6,15.7,202.6,17.4,199.5,17.4
		z"/>
	<path d="M219.2,9.6c0,4.3-2.6,7.7-7,7.7c-3.4,0-5.4-1.9-5.4-5.4c0-4.5,2.9-7.7,6.9-7.7
		C217.1,4.3,219.2,6.2,219.2,9.6z M210,12c0,1.8,0.9,2.9,2.5,2.9c2.5,0,3.5-3.2,3.5-5.3c0-1.7-0.9-2.8-2.4-2.8
		C211.5,6.7,210,9.1,210,12z"/>
	<path d="M225.3,6.4c1.1-1.2,2.4-2.1,4.1-2.1c1.7,0,2.7,0.7,3,2.2c1.2-1.3,2.3-2.1,4.1-2.1c2.1,0,3.5,1.2,3.5,3
		c0,0.6-0.1,1.4-0.3,2.5l-1.4,7.1H235l1.4-6.9c0.2-0.9,0.2-1.2,0.2-1.7c0-0.8-0.6-1.3-1.5-1.3c-2,0-2.7,1.9-3,3.6l-1.3,6.3h-3.3
		l1.4-7c0.1-0.6,0.3-1.1,0.3-1.7c0-0.8-0.6-1.3-1.4-1.3c-1.9,0-2.8,1.7-3.1,3.4l-1.4,6.6H220l2.5-12.4h3.1L225.3,6.4z"/>
</g>
<path fill="#FFFFFF" d="M97.4-0.8H85.3c-0.2,0-0.3,0.1-0.3,0.3l0,0l-0.6,3.2c0,0.1,0,0.2,0.1,0.3l0,0C84.5,3,84.6,3,84.6,3l0,0h6.5
	l-9.7,11.6c0,0-0.1,0.1-0.1,0.2l0,0L80.9,17c0,0.1,0,0.2,0.1,0.3l0,0c0.1,0.1,0.2,0.1,0.3,0.1l0,0h13c0.2,0,0.3-0.1,0.3-0.3l0,0
	l0.6-3.2c0-0.1,0-0.2-0.1-0.3l0,0c-0.1-0.1-0.2-0.1-0.3-0.1l0,0h-7.2L97.2,2c0,0,0.1-0.1,0.1-0.2l0,0l0.4-2.3c0-0.1,0-0.2-0.1-0.3
	l0,0C97.6-0.8,97.5-0.8,97.4-0.8z"/>
<path fill="#FFFFFF" d="M103.2,16.2c0.7-0.5,0.6-0.5,1-1l0,0c0,0.5-0.1,1-0.1,1.4l0,0c0,0.1,0,0.2,0.1,0.2l0,0
	c0.1,0.1,0.1,0.1,0.2,0.1l0,0h3.4c0.1,0,0.2,0,0.2-0.1l0,0c0.1-0.1,0.1-0.2,0.1-0.2l0,0c0-1.5,0.2-4,0.5-5.6l0,0l1.3-6.7
	c0-0.2-0.1-0.3-0.2-0.4l0,0c-1.2-0.4-2.9-0.6-4.3-0.6c-0.9,0-1.6,0.1-2.4,0.2l-0.6,0.2c-4.2,2-6.6,5.1-6.6,8.9
	c0,2.8,1.7,4.8,4.2,4.8l0,0c0.8,0,1.7-0.2,2.6-0.8L103.2,16.2z M102.7,13.4c-0.5,0.3-0.7,0.3-1,0.3l0,0c-1,0-1.2-1.1-1.2-1.8l0,0
	c0-1.7,1.1-3.6,2.2-4.4l0.2-0.1c0.5-0.3,1-0.5,1.6-0.5l0,0c0.2,0,0.4,0,0.6,0l0,0l-0.5,2.6c-0.3,1.9-0.9,3.1-1.6,3.7L102.7,13.4z"/>
</svg>
