<svg xmlns="http://www.w3.org/2000/svg" xmlns:xlink="http://www.w3.org/1999/xlink" preserveAspectRatio="xMidYMid" width="16" height="24" viewBox="0 0 16 24">
  <path d="M8.000,1.999 C11.309,1.999 14.000,4.691 14.000,7.999 C14.000,7.999 14.000,16.000 14.000,16.000 C14.000,19.309 11.309,22.000 8.000,22.000 C4.691,22.000 2.000,19.309 2.000,16.000 C2.000,16.000 2.000,7.999 2.000,7.999 C2.000,4.691 4.691,1.999 8.000,1.999 ZM8.000,-0.000 C3.582,-0.000 -0.000,3.582 -0.000,7.999 C-0.000,7.999 -0.000,16.000 -0.000,16.000 C-0.000,20.418 3.582,24.000 8.000,24.000 C12.418,24.000 16.000,20.418 16.000,16.000 C16.000,16.000 16.000,7.999 16.000,7.999 C16.000,3.582 12.418,-0.000 8.000,-0.000 ZM8.000,9.000 C7.171,9.000 6.500,8.328 6.500,7.499 C6.500,6.672 7.171,6.000 8.000,6.000 C8.829,6.000 9.500,6.672 9.500,7.499 C9.500,8.328 8.829,9.000 8.000,9.000 Z" fill-rule="evenodd"/>
</svg>
