<svg 
 xmlns="http://www.w3.org/2000/svg"
 xmlns:xlink="http://www.w3.org/1999/xlink"
 width="30px" height="30px">
<path fill-rule="evenodd"
 d="M15.000,-0.001 C6.724,-0.001 -0.000,6.723 -0.000,14.999 C-0.000,23.275 6.724,29.999 15.000,29.999 C23.276,29.999 30.000,23.275 30.000,14.999 C30.000,11.965 29.092,9.148 27.539,6.785 L29.797,4.569 C29.922,4.452 30.000,4.262 30.000,4.090 C29.998,3.621 29.664,3.408 29.318,3.408 C29.142,3.408 28.946,3.489 28.839,3.600 L26.729,5.667 C23.979,2.217 19.748,-0.001 15.000,-0.001 ZM15.000,1.363 C19.375,1.363 23.266,3.419 25.760,6.615 L13.285,18.824 L7.969,13.817 C7.709,13.571 7.250,13.584 7.004,13.843 C6.759,14.103 6.772,14.561 7.031,14.808 L12.827,20.262 C13.080,20.502 13.526,20.497 13.775,20.251 L26.548,7.744 C27.870,9.845 28.636,12.330 28.636,14.999 C28.636,22.538 22.539,28.635 15.000,28.635 C7.461,28.635 1.364,22.538 1.364,14.999 C1.364,7.460 7.461,1.363 15.000,1.363 L15.000,1.363 Z"/>
</svg>